<?xml version="1.0" encoding="UTF-8" standalone="no"?>
<svg
   id="Layer_1"
   data-name="Layer 1"
   viewBox="0 0 949.99999 949.99997"
   version="1.1"
   sodipodi:docname="docker-sqlite.svg"
   width="950"
   height="950"
   inkscape:version="1.3.2 (091e20e, 2023-11-25)"
   xmlns:inkscape="http://www.inkscape.org/namespaces/inkscape"
   xmlns:sodipodi="http://sodipodi.sourceforge.net/DTD/sodipodi-0.dtd"
   xmlns="http://www.w3.org/2000/svg"
   xmlns:svg="http://www.w3.org/2000/svg">
  <sodipodi:namedview
     id="namedview1"
     pagecolor="#ffffff"
     bordercolor="#000000"
     borderopacity="0.25"
     inkscape:showpageshadow="2"
     inkscape:pageopacity="0.0"
     inkscape:pagecheckerboard="false"
     inkscape:deskcolor="#d1d1d1"
     inkscape:zoom="0.73016786"
     inkscape:cx="12.325933"
     inkscape:cy="569.73201"
     inkscape:window-width="2560"
     inkscape:window-height="1387"
     inkscape:window-x="0"
     inkscape:window-y="25"
     inkscape:window-maximized="0"
     inkscape:current-layer="Layer_1" />
  <defs
     id="defs1">
    <style
       id="style1">
      .cls-1 {
        fill: #1d63ed;
        stroke-width: 0px;
      }
    </style>
    <linearGradient
       x1="2.983"
       y1="0.52999997"
       x2="2.983"
       y2="4.744"
       id="A"
       gradientUnits="userSpaceOnUse"
       gradientTransform="matrix(82.367337,0,0,82.367337,-706.19649,754.01516)">
      <stop
         stop-color="#97d9f6"
         offset="0%"
         id="stop1" />
      <stop
         stop-color="#0f80cc"
         offset="92.024%"
         id="stop2" />
      <stop
         stop-color="#0f80cc"
         offset="100%"
         id="stop3" />
    </linearGradient>
  </defs>
  <g
     id="g1"
     transform="translate(3.7433846,41.098644)">
    <path
       id="path1"
       class="cls-1"
       inkscape:label="path1"
       d="m 201.10466,379.57957 v 81.70117 h 81.69922 v -81.70117 z m 105.54883,0 v 81.70117 h 81.70117 v -81.70117 z m 105.55078,0 v 81.70117 h 81.69922 v -81.70117 z m 256.50977,34.56055 -8.21094,12.40039 c -16.13996,24.49994 -22.93928,57.1406 -20.5293,86.81054 1.9,18.27996 8.25932,38.83026 20.5293,53.74024 -46.0999,26.73994 -88.58991,20.66992 -276.76953,20.66992 H 93.194504 c -0.849999,42.48992 5.979088,124.22967 57.958976,190.76953 5.73999,7.34998 12.04111,14.46055 18.8711,21.31055 42.25992,42.31992 106.11003,73.34945 201.58985,73.43945 145.6597,0.13 270.4593,-78.60108 346.36914,-268.9707 24.97994,0.41 90.91951,4.48097 123.18945,-57.87891 0.79,-1.05 8.21094,-16.54101 8.21094,-16.54101 l -12.30078,-8.26954 0.0117,0.01 c -18.53996,-12.47998 -67.26172,-17.80951 -102.68164,-8.26953 -1.91,-35.27994 -20.09897,-65.01123 -53.37891,-90.95117 z M 95.553879,482.77097 v 81.69922 h 81.699211 v -81.69922 z m 105.550781,0 v 81.69922 h 81.69922 v -81.69922 z m 105.54883,0 v 81.69922 h 81.70117 v -81.69922 z m 105.55078,0 v 81.69922 h 81.69922 v -81.69922 z m 105.54883,0 v 81.69922 h 81.70117 v -81.69922 z" />
    <a
       id="a1"
       transform="matrix(0.9724718,0,0,0.9724718,789.24185,-738.75185)">
      <path
         d="m -297.65441,777.90181 h -338.77686 c -22.73341,0 -41.18367,18.61502 -41.18367,41.18367 v 373.61822 c 0,22.7334 18.61502,41.1836 41.18367,41.1836 h 223.21546 c -2.471,-111.0311 35.418,-326.50407 115.6438,-456.31501 z"
         fill="#0f80cc"
         id="path3"
         style="stroke-width:82.3676" />
      <path
         d="m -310.00951,790.0098 h -326.42176 c -16.14405,0 -29.24043,13.17872 -29.24043,29.24035 v 346.35475 c 73.96588,-28.4169 184.91469,-52.8799 261.68109,-51.7268 a 2382.887,2382.887 0 0 1 94.0635,-323.8683 z"
         fill="url(#A)"
         id="path4"
         style="fill:url(#A);stroke-width:82.3676" />
      <path
         d="m -218.58181,765.71138 c -23.2276,-20.59179 -51.3148,-12.35508 -79.0726,12.19043 l -12.3551,12.02557 c -47.4435,50.24408 -90.6041,143.48394 -105.1007,214.73162 a 196.03426,196.03426 0 0 1 12.1903,35.0885 l 1.8121,8.2368 1.8121,8.4014 c 0,0 -0.4117,-1.6473 -2.1415,-6.5893 l -1.1532,-3.2947 a 37.971342,37.971342 0 0 0 -0.7415,-1.8121 c -3.1299,-7.166 -11.5314,-22.4039 -15.4027,-28.9934 a 723.9265,723.9265 0 0 0 -8.4838,26.44 c 10.8724,19.9329 17.4619,54.0329 17.4619,54.0329 0,0 -0.5771,-2.2238 -3.2947,-9.884 -2.4711,-6.8365 -14.4967,-28.005 -17.2972,-32.947 -4.942,18.1209 -6.8365,30.3112 -5.1068,33.2764 3.2948,5.7658 6.5895,16.4735 9.4723,26.6871 a 619.40238,619.40238 0 0 1 10.8725,54.8566 l 0.4117,5.1068 a 503.26443,503.26443 0 0 0 1.2355,61.7755 c 2.1415,25.781 6.1775,47.9378 11.2843,59.7986 l 3.4594,-1.8943 c -7.4131,-23.3924 -10.543,-53.9507 -9.2251,-89.2863 2.0591,-53.9506 14.4143,-119.0207 37.3948,-186.8091 38.9598,-103.20625 92.6632,-185.40884 141.9189,-224.61573 -44.8902,40.52472 -105.595,171.65356 -123.7158,220.16793 -20.3447,54.3624 -34.759,105.4301 -43.4899,154.274 14.9909,-45.7963 63.4228,-65.5644 63.4228,-65.5644 0,0 23.8866,-29.3228 51.562,-71.2478 l -53.127,14.1672 -17.1323,7.5778 c 0,0 43.6546,-26.6047 81.2965,-38.7127 51.6443,-81.29648 107.9013,-196.85781 51.2325,-247.26665"
         fill="#003b57"
         id="path5"
         style="stroke-width:82.3676" />
    </a>
  </g>
</svg>
